<?xml version="1.0" encoding="iso-8859-1"?>
<!-- Uploaded to: SVG Repo, www.svgrepo.com, Generator: SVG Repo Mixer Tools -->
<svg height="800px" width="800px" version="1.1" id="Layer_1" xmlns="http://www.w3.org/2000/svg" xmlns:xlink="http://www.w3.org/1999/xlink" 
	 viewBox="0 0 504.123 504.123" xml:space="preserve">
<circle style="fill:#0EE565;" cx="252.062" cy="252.062" r="252.062"/>
<path style="fill:#00C67F;" d="M73.83,73.823c98.43-98.43,258.032-98.43,356.462,0c98.43,98.438,98.446,258.032,0,356.478"/>
<g>
	<path style="fill:#1D2321;" d="M227.942,148.968c2.938,0,5.309-2.387,5.309-5.325l0.016-46.781l14.588,14.596
		c3.119,3.119,8.168,3.119,11.28,0.008c3.119-3.119,3.119-8.168,0-11.288L227.95,68.986l-31.201,31.193
		c-3.111,3.111-3.111,8.168,0,11.28c3.119,3.119,8.184,3.119,11.296,0l14.604-14.596l-0.016,46.781
		C222.633,146.582,224.996,148.968,227.942,148.968z"/>
	<path style="fill:#1D2321;" d="M276.196,86.449c-2.938,0-5.309,2.387-5.309,5.325l-0.016,46.781l-14.588-14.596
		c-3.119-3.119-8.184-3.119-11.296-0.008c-3.111,3.119-3.111,8.168,0,11.288l31.201,31.193l31.185-31.193
		c3.111-3.111,3.111-8.168,0-11.28c-3.111-3.119-8.168-3.119-11.28,0l-14.604,14.596l0.016-46.781
		C281.505,88.828,279.142,86.449,276.196,86.449z"/>
	<polygon style="fill:#1D2321;" points="384,402.723 120.115,402.723 120.115,138.831 177.231,138.831 177.231,154.585 
		135.869,154.585 135.869,386.97 368.246,386.97 368.246,154.585 326.892,154.585 326.892,138.831 384,138.831 	"/>
</g>
<g>
	<polygon style="fill:#363D3B;" points="326.892,154.585 368.246,154.585 368.246,368.262 384,384.016 384,138.831 326.892,138.831 
			"/>
	<polygon style="fill:#363D3B;" points="154.585,154.585 177.231,154.585 177.231,138.831 138.831,138.831 	"/>
</g>
<g>
	<path style="fill:#1D2321;" d="M210.219,301.458c0,8.696-7.05,15.754-15.754,15.754h-15.754c-8.696,0-15.754-7.058-15.754-15.754
		v-60.062c0-8.696,7.058-15.754,15.754-15.754h15.754c8.704,0,15.754,7.058,15.754,15.754V301.458z"/>
	<path style="fill:#1D2321;" d="M184.619,366.931c0,4.08-3.308,7.389-7.389,7.389l0,0c-4.08,0-7.389-3.308-7.389-7.389v-59.077
		c0-4.08,3.308-7.389,7.389-7.389l0,0c4.08,0,7.389,3.308,7.389,7.389V366.931z"/>
	<path style="fill:#1D2321;" d="M202.342,366.931c0,4.08-3.308,7.389-7.389,7.389l0,0c-4.08,0-7.389-3.308-7.389-7.389v-59.077
		c0-4.08,3.308-7.389,7.389-7.389l0,0c4.08,0,7.389,3.308,7.389,7.389V366.931z"/>
	<path style="fill:#1D2321;" d="M207.013,207.919c0,8.696-7.05,15.754-15.754,15.754h-9.358c-8.696,0-15.754-7.058-15.754-15.754
		v-9.358c0-8.696,7.058-15.754,15.754-15.754h9.358c8.704,0,15.754,7.058,15.754,15.754V207.919z"/>
	<path style="fill:#1D2321;" d="M275.692,301.458c0,8.696-7.05,15.754-15.754,15.754h-15.754c-8.696,0-15.754-7.058-15.754-15.754
		v-60.062c0-8.696,7.058-15.754,15.754-15.754h15.754c8.704,0,15.754,7.058,15.754,15.754V301.458z"/>
	<path style="fill:#1D2321;" d="M250.092,366.931c0,4.08-3.308,7.389-7.389,7.389l0,0c-4.08,0-7.389-3.308-7.389-7.389v-59.077
		c0-4.08,3.308-7.389,7.389-7.389l0,0c4.08,0,7.389,3.308,7.389,7.389V366.931z"/>
	<path style="fill:#1D2321;" d="M267.815,366.931c0,4.08-3.308,7.389-7.389,7.389l0,0c-4.08,0-7.389-3.308-7.389-7.389v-59.077
		c0-4.08,3.308-7.389,7.389-7.389l0,0c4.08,0,7.389,3.308,7.389,7.389V366.931z"/>
	<path style="fill:#1D2321;" d="M272.494,207.919c0,8.696-7.05,15.754-15.754,15.754h-9.358c-8.696,0-15.754-7.058-15.754-15.754
		v-9.358c0-8.696,7.058-15.754,15.754-15.754h9.358c8.704,0,15.754,7.058,15.754,15.754V207.919z"/>
	<path style="fill:#1D2321;" d="M341.165,301.458c0,8.696-7.05,15.754-15.754,15.754h-15.754c-8.696,0-15.754-7.058-15.754-15.754
		v-60.062c0-8.696,7.058-15.754,15.754-15.754h15.754c8.704,0,15.754,7.058,15.754,15.754V301.458z"/>
	<path style="fill:#1D2321;" d="M315.565,366.931c0,4.08-3.308,7.389-7.389,7.389l0,0c-4.08,0-7.389-3.308-7.389-7.389v-59.077
		c0-4.08,3.308-7.389,7.389-7.389l0,0c4.08,0,7.389,3.308,7.389,7.389V366.931z"/>
	<path style="fill:#1D2321;" d="M333.288,366.931c0,4.08-3.308,7.389-7.389,7.389l0,0c-4.08,0-7.389-3.308-7.389-7.389v-59.077
		c0-4.08,3.308-7.389,7.389-7.389l0,0c4.08,0,7.389,3.308,7.389,7.389V366.931z"/>
	<path style="fill:#1D2321;" d="M337.967,207.919c0,8.696-7.05,15.754-15.754,15.754h-9.358c-8.696,0-15.754-7.058-15.754-15.754
		v-9.358c0-8.696,7.058-15.754,15.754-15.754h9.358c8.704,0,15.754,7.058,15.754,15.754V207.919z"/>
</g>
</svg>